# xmcd CD database file
#
# Track frame offsets:
#	150
#	37167
#	62012
#	95005
#	126395
#	151140
#	180115
#	207237
#	222917
#
# Disc length: 3182 seconds
#
# Revision: 2
# Processed by: cddbd v1.5.1PL2 Copyright (c) Steve Scherf et al.
# Submitted via: CDex 1.51
#
DISCID=7c0c6c09
DTITLE=Clay Ross - The Random Puller
DYEAR=2005
DGENRE=Jazz
TTITLE0=The Random Puller
TTITLE1=Agora
TTITLE2=Falez
TTITLE3=Lost Child
TTITLE4=Luna Belle
TTITLE5=Midway Road
TTITLE6=Blue Clay
TTITLE7=Yeah, Yeah, Yeah
TTITLE8=The Circle Song
EXTD=YEAR: 2005
EXTT0=
EXTT1=
EXTT2=
EXTT3=
EXTT4=
EXTT5=
EXTT6=
EXTT7=
EXTT8=
PLAYORDER=
